<?xml version="1.0" standalone="no"?>
<!DOCTYPE svg PUBLIC "-//W3C//DTD SVG 20010904//EN"
 "http://www.w3.org/TR/2001/REC-SVG-20010904/DTD/svg10.dtd">
<svg version="1.0" xmlns="http://www.w3.org/2000/svg"
 width="450.000000pt" height="90.000000pt" viewBox="0 0 450.000000 90.000000"
 preserveAspectRatio="xMidYMid meet">
<metadata>
Created by potrace 1.10, written by Peter Selinger 2001-2011
</metadata>
<g transform="translate(0.000000,90.000000) scale(0.100000,-0.100000)"
fill="#ffffff" stroke="none">
<path d="M400 845 c-26 -27 -37 -32 -51 -25 -31 17 -50 11 -86 -25 -33 -33
-34 -37 -20 -53 9 -10 52 -35 97 -57 44 -21 80 -44 80 -50 -1 -5 -11 -23 -24
-39 l-24 -29 -41 17 c-56 22 -73 20 -101 -9 -27 -28 -21 -41 36 -76 28 -17 34
-27 34 -54 0 -24 6 -38 20 -45 12 -6 20 -21 20 -37 0 -33 21 -103 31 -103 14
0 20 19 11 37 -5 10 -13 37 -17 61 -9 56 8 56 57 0 31 -36 40 -41 55 -32 34
21 39 59 14 110 l-22 47 27 28 c15 16 31 29 35 29 4 0 16 -13 26 -30 9 -16 23
-30 30 -30 18 0 16 13 -7 43 -26 33 -26 38 13 75 l34 33 36 -80 c40 -88 45
-122 21 -142 -14 -11 -19 -9 -35 11 -10 14 -19 28 -19 33 0 9 -30 9 -30 -1 0
-4 11 -24 25 -45 30 -44 56 -47 84 -11 23 29 27 65 10 96 -9 17 -6 25 20 52
37 38 39 55 8 84 -27 26 -50 28 -67 7 -7 -8 -16 -15 -21 -15 -18 0 -8 29 19
57 16 15 33 36 38 45 7 13 16 15 44 9 31 -6 35 -10 32 -36 -2 -19 8 -44 34
-82 l37 -54 -21 -38 c-24 -42 -29 -86 -10 -97 6 -4 25 -10 42 -13 17 -4 36
-16 41 -28 22 -44 38 -55 72 -51 18 2 33 3 33 1 0 -3 -33 -87 -36 -91 -1 -2
-19 6 -40 17 -21 12 -52 21 -69 21 -32 0 -95 -33 -95 -50 0 -15 -56 -40 -92
-40 -18 0 -46 9 -63 20 -34 23 -84 26 -107 8 -9 -7 -23 -26 -31 -42 l-15 -30
-28 42 c-16 23 -35 41 -41 42 -26 0 -11 -26 45 -81 74 -72 142 -99 247 -99
143 0 254 69 317 198 30 60 33 75 33 157 0 76 -4 99 -26 145 -48 103 -137 179
-238 203 -50 11 -51 12 -51 49 0 46 -22 68 -68 68 -44 0 -92 -27 -123 -69 -13
-17 -29 -31 -36 -31 -15 0 -17 16 -3 25 17 11 11 41 -13 63 -32 30 -48 28 -87
-13z m78 -18 c6 -31 -15 -47 -48 -35 -29 10 -29 10 -12 34 20 27 55 28 60 1z
m216 7 c19 -18 20 -53 4 -89 -6 -14 -85 -93 -176 -176 -155 -142 -199 -171
-196 -128 1 18 231 345 262 372 17 15 58 33 84 36 4 1 14 -6 22 -15z m-281
-62 l87 -28 -30 -40 -30 -41 -87 45 c-49 25 -90 46 -92 48 -8 7 32 44 48 44 9
0 55 -13 104 -28z m504 -125 c54 -50 91 -120 104 -196 10 -65 6 -87 -21 -94
-22 -6 -39 7 -63 45 -11 18 -29 29 -52 34 -19 3 -38 10 -41 15 -3 5 7 31 21
58 30 54 27 65 -21 124 -23 28 -31 57 -18 70 10 9 41 -10 91 -56z m-188 -41
c10 -12 9 -20 -4 -40 -22 -33 -29 -33 -44 0 -19 42 20 74 48 40z m-401 -47
c30 -10 31 -11 16 -35 -20 -30 -27 -30 -67 -2 -18 13 -34 24 -36 25 -1 1 0 6
4 12 8 14 44 14 83 0z m143 -138 c14 -32 15 -43 5 -56 -11 -16 -16 -14 -44 21
l-32 38 22 23 c25 26 25 26 49 -26z m470 -190 l24 -20 -40 -41 c-22 -22 -65
-53 -95 -68 -78 -38 -190 -38 -272 0 -50 23 -56 29 -51 50 13 53 51 62 118 28
65 -33 111 -24 177 35 45 41 101 47 139 16z"/>
<path d="M610 804 c0 -10 50 -54 61 -54 13 0 11 12 -7 38 -14 20 -54 32 -54
16z"/>
<path d="M1138 646 c-41 -15 -92 -45 -86 -51 2 -3 26 7 53 20 95 49 184 25
232 -60 13 -22 50 -110 84 -195 34 -85 65 -161 69 -169 9 -16 19 6 105 220 32
79 67 152 78 162 19 17 18 17 -19 17 -27 0 -35 -3 -25 -9 12 -8 4 -36 -44
-160 -33 -83 -60 -149 -61 -148 -1 1 -28 69 -60 151 -64 164 -94 207 -159 225
-53 14 -121 13 -167 -3z"/>
<path d="M3615 607 c-8 -17 -7 -26 7 -39 11 -11 20 -13 24 -7 3 6 12 8 19 6 8
-4 12 4 11 24 -1 19 -5 27 -13 25 -7 -3 -15 -1 -18 4 -10 16 -19 12 -30 -13z"/>
<path d="M3176 605 c-100 -36 -156 -120 -156 -235 0 -63 39 -142 86 -174 46
-31 129 -51 175 -42 39 7 99 41 99 56 0 5 -16 -2 -36 -15 -47 -32 -124 -34
-171 -5 -54 32 -78 91 -78 190 0 70 4 94 24 133 28 57 70 87 124 87 44 0 70
-12 110 -48 l27 -26 0 32 c0 23 -5 31 -17 31 -10 -1 -36 6 -58 15 -50 19 -79
19 -129 1z"/>
<path d="M2631 513 c-74 -39 -67 -83 24 -155 71 -57 90 -92 60 -115 -29 -21
-85 -10 -113 23 l-24 27 4 -24 c11 -78 197 -56 206 24 4 29 -19 56 -107 126
-33 26 -41 39 -39 60 3 22 8 26 42 29 29 3 44 -2 62 -19 19 -18 24 -19 24 -7
0 41 -84 60 -139 31z"/>
<path d="M1680 508 c0 -5 5 -8 10 -8 6 0 10 -48 10 -125 0 -108 -2 -125 -17
-134 -14 -8 0 -10 52 -10 52 0 66 2 53 10 -16 9 -18 26 -18 134 0 77 4 125 10
125 6 0 10 3 10 8 0 4 -25 7 -55 7 -30 0 -55 -3 -55 -7z"/>
<path d="M2160 508 c0 -5 5 -8 10 -8 6 0 10 -47 10 -120 0 -118 0 -120 -26
-137 -47 -31 -71 -6 -133 140 -30 70 -57 127 -60 127 -3 0 -28 -55 -56 -122
-27 -66 -59 -129 -69 -139 -19 -19 -19 -19 13 -19 26 0 31 3 23 13 -7 8 -6 22
3 45 11 26 20 32 44 32 16 0 33 4 36 10 4 6 -7 10 -24 10 -36 0 -35 -3 -15 46
l17 39 22 -50 c43 -98 51 -125 36 -134 -7 -5 25 -10 76 -14 76 -5 93 -3 124
15 50 28 59 53 59 163 0 57 4 95 10 95 6 0 10 3 10 8 0 4 -25 7 -55 7 -30 0
-55 -3 -55 -7z"/>
<path d="M2320 508 c0 -5 5 -8 10 -8 6 0 10 -48 10 -125 0 -108 -2 -125 -17
-134 -13 -8 16 -10 105 -11 l122 0 0 33 -1 32 -20 -27 c-18 -24 -28 -28 -70
-28 l-49 0 0 55 0 55 34 0 c19 0 42 -7 50 -16 15 -14 16 -12 16 23 -1 31 -3
35 -11 21 -7 -12 -22 -18 -49 -18 l-40 0 0 70 0 70 54 0 c44 0 56 -4 70 -22
l16 -23 -2 30 -3 30 -112 0 c-62 0 -113 -3 -113 -7z"/>
<path d="M3240 508 c0 -5 5 -8 10 -8 15 0 13 -243 -2 -258 -9 -9 2 -12 53 -12
48 1 60 3 47 11 -13 7 -18 23 -18 54 l0 45 58 0 58 0 -4 -42 c-2 -24 -9 -49
-14 -55 -8 -10 4 -13 53 -13 48 1 60 3 47 11 -16 9 -18 26 -18 134 0 77 4 125
10 125 6 0 10 3 10 8 0 4 -25 7 -55 7 -30 0 -55 -3 -55 -7 0 -5 5 -8 10 -8 6
0 10 -32 10 -75 l0 -75 -55 0 -55 0 0 75 c0 43 4 75 10 75 6 0 10 3 10 8 0 4
-25 7 -55 7 -30 0 -55 -3 -55 -7z"/>
<path d="M3580 509 c0 -4 7 -9 15 -13 22 -8 22 -228 -1 -250 -14 -15 -10 -16
48 -16 48 1 59 3 46 11 -16 9 -18 26 -18 134 0 104 2 125 15 125 8 0 15 3 15
8 0 4 -27 7 -60 7 -33 0 -60 -3 -60 -6z"/>
<path d="M3740 509 c0 -4 7 -9 15 -13 12 -4 15 -28 15 -125 0 -104 -2 -121
-17 -130 -13 -8 16 -10 105 -11 l122 0 -1 33 c0 17 -3 25 -6 17 -10 -28 -37
-40 -90 -40 l-53 0 0 125 c0 102 3 127 15 131 30 12 13 19 -45 19 -33 0 -60
-3 -60 -6z"/>
<path d="M4010 509 c0 -4 7 -9 15 -13 12 -4 15 -28 15 -125 0 -104 -2 -121
-17 -130 -13 -8 15 -10 100 -11 l117 0 -1 33 c0 17 -3 25 -6 17 -10 -27 -36
-40 -85 -40 l-48 0 0 55 0 55 33 0 c18 0 43 -7 55 -16 22 -15 22 -14 22 22 0
35 -1 36 -18 21 -10 -10 -35 -17 -55 -17 l-37 0 0 70 0 70 58 0 c51 0 60 -3
70 -22 10 -22 11 -21 11 9 l1 32 -115 -2 c-63 -1 -115 -5 -115 -8z"/>
</g>
</svg>
